<mxfile host="65bd71144e">
    <diagram id="fPcvmV1sv74GmChdSBnY" name="Page-1">
        <mxGraphModel dx="415" dy="567" grid="1" gridSize="10" guides="1" tooltips="1" connect="1" arrows="1" fold="1" page="1" pageScale="1" pageWidth="2336" pageHeight="1654" math="0" shadow="0">
            <root>
                <mxCell id="0"/>
                <mxCell id="1" parent="0"/>
                <mxCell id="3" value="order" style="swimlane;childLayout=stackLayout;resizeParent=1;resizeParentMax=0;horizontal=0;startSize=20;horizontalStack=0;fillColor=#60a917;strokeColor=#2D7600;fontColor=#ffffff;fontSize=13;" vertex="1" parent="1">
                    <mxGeometry x="83" y="80" width="2170" height="630" as="geometry"/>
                </mxCell>
                <mxCell id="4" value="Customer" style="swimlane;startSize=20;horizontal=0;" vertex="1" parent="3">
                    <mxGeometry x="20" width="2150" height="360" as="geometry"/>
                </mxCell>
                <mxCell id="13" value="&lt;font style=&quot;font-size: 23px&quot;&gt;پایان&lt;/font&gt;" style="ellipse;whiteSpace=wrap;html=1;fillColor=#0050ef;strokeColor=#001DBC;fontColor=#ffffff;" vertex="1" parent="4">
                    <mxGeometry x="1977" y="160" width="73" height="70" as="geometry"/>
                </mxCell>
                <mxCell id="17" value="استفاده از کد تخفیف در ثبت سفارش" style="whiteSpace=wrap;html=1;fontSize=13;fontColor=#ffffff;strokeColor=#2D7600;fillColor=#60a917;" vertex="1" parent="4">
                    <mxGeometry x="1067" y="230" width="143" height="60" as="geometry"/>
                </mxCell>
                <mxCell id="21" style="edgeStyle=orthogonalEdgeStyle;html=1;exitX=1;exitY=0.5;exitDx=0;exitDy=0;entryX=0.5;entryY=1;entryDx=0;entryDy=0;" edge="1" parent="4" source="17" target="13">
                    <mxGeometry relative="1" as="geometry">
                        <mxPoint x="1217.0000000000002" y="260" as="sourcePoint"/>
                        <Array as="points">
                            <mxPoint x="2014" y="260"/>
                        </Array>
                    </mxGeometry>
                </mxCell>
                <mxCell id="15" value="Postex" style="swimlane;startSize=20;horizontal=0;" vertex="1" parent="3">
                    <mxGeometry x="20" y="360" width="2150" height="270" as="geometry"/>
                </mxCell>
                <mxCell id="6" value="&lt;font style=&quot;font-size: 18px&quot;&gt;شروع&lt;/font&gt;" style="ellipse;whiteSpace=wrap;html=1;aspect=fixed;fontSize=13;fillColor=#0050ef;strokeColor=#001DBC;fontColor=#ffffff;" vertex="1" parent="15">
                    <mxGeometry x="67" y="80" width="80" height="80" as="geometry"/>
                </mxCell>
                <mxCell id="8" value="&lt;span style=&quot;font-size: 17px&quot;&gt;تخفیفات&amp;nbsp;&lt;/span&gt;" style="whiteSpace=wrap;html=1;fontSize=13;fontColor=#ffffff;strokeColor=#2D7600;fillColor=#60a917;" vertex="1" parent="15">
                    <mxGeometry x="177" y="90" width="120" height="60" as="geometry"/>
                </mxCell>
                <mxCell id="5" value="" style="edgeStyle=orthogonalEdgeStyle;rounded=0;orthogonalLoop=1;jettySize=auto;html=1;fontSize=13;" edge="1" parent="15" source="6" target="8">
                    <mxGeometry relative="1" as="geometry"/>
                </mxCell>
                <mxCell id="10" value="&lt;span style=&quot;font-size: 22px&quot;&gt;مورد جدید&lt;/span&gt;" style="whiteSpace=wrap;html=1;fontSize=13;fontColor=#ffffff;strokeColor=#2D7600;fillColor=#60a917;" vertex="1" parent="15">
                    <mxGeometry x="327" y="90" width="120" height="60" as="geometry"/>
                </mxCell>
                <mxCell id="7" value="" style="edgeStyle=orthogonalEdgeStyle;rounded=0;orthogonalLoop=1;jettySize=auto;html=1;fontSize=13;" edge="1" parent="15" source="8" target="10">
                    <mxGeometry relative="1" as="geometry"/>
                </mxCell>
                <mxCell id="12" value="&amp;nbsp;ارسال تیکت&amp;nbsp; جدید" style="whiteSpace=wrap;html=1;fontSize=13;fontColor=#ffffff;strokeColor=#2D7600;fillColor=#60a917;" vertex="1" parent="15">
                    <mxGeometry x="497" y="90" width="120" height="60" as="geometry"/>
                </mxCell>
                <mxCell id="9" style="edgeStyle=none;html=1;exitX=1;exitY=0.5;exitDx=0;exitDy=0;entryX=0;entryY=0.5;entryDx=0;entryDy=0;" edge="1" parent="15" source="10" target="12">
                    <mxGeometry relative="1" as="geometry"/>
                </mxCell>
                <mxCell id="14" value="ساخت کد تخفیف" style="whiteSpace=wrap;html=1;fontSize=13;fontColor=#ffffff;strokeColor=#2D7600;fillColor=#60a917;" vertex="1" parent="15">
                    <mxGeometry x="697" y="90" width="120" height="60" as="geometry"/>
                </mxCell>
                <mxCell id="11" style="edgeStyle=none;html=1;exitX=1;exitY=0.5;exitDx=0;exitDy=0;entryX=0;entryY=0.5;entryDx=0;entryDy=0;" edge="1" parent="15" source="12" target="14">
                    <mxGeometry relative="1" as="geometry"/>
                </mxCell>
                <mxCell id="20" value="" style="edgeStyle=orthogonalEdgeStyle;html=1;" edge="1" parent="3" source="14" target="17">
                    <mxGeometry relative="1" as="geometry"/>
                </mxCell>
                <mxCell id="22" value="ثبت اطلاعات فرستنده" style="swimlane;fontColor=#000000;" vertex="1" parent="1">
                    <mxGeometry x="300" y="827" width="410" height="360" as="geometry">
                        <mxRectangle x="130" y="1140" width="90" height="23" as="alternateBounds"/>
                    </mxGeometry>
                </mxCell>
                <mxCell id="23" value="&lt;span style=&quot;font-size: 25px&quot;&gt;&lt;font color=&quot;#000000&quot;&gt;نام&lt;br&gt;نوع تخفیف&lt;br&gt;&lt;/font&gt;&lt;/span&gt;&lt;span style=&quot;font-size: 25px&quot;&gt;&lt;font color=&quot;#000000&quot;&gt;استفاده از درصد &lt;br&gt;درصد تخفیف&lt;br&gt;حداکثر مقدار تخفیف&lt;br&gt;کد کوپن&lt;br&gt;تاریخ شروع&amp;nbsp;&lt;br&gt;تاریخ پایان&lt;br&gt;تجمیع با بقیه تخفیفات&lt;br&gt;محدودیت تخفیف&lt;br&gt;&lt;br&gt;&lt;/font&gt;&lt;/span&gt;" style="text;html=1;align=right;verticalAlign=middle;resizable=0;points=[];autosize=1;strokeColor=none;fontColor=#FFFFFF;" vertex="1" parent="22">
                    <mxGeometry x="140" y="90" width="190" height="200" as="geometry"/>
                </mxCell>
                <mxCell id="24" value="" style="shape=ext;double=1;whiteSpace=wrap;html=1;aspect=fixed;fillColor=#a20025;strokeColor=#6F0000;fontColor=#ffffff;" vertex="1" parent="22">
                    <mxGeometry x="350" y="30" width="20" height="20" as="geometry"/>
                </mxCell>
                <mxCell id="25" value="" style="shape=ext;double=1;whiteSpace=wrap;html=1;aspect=fixed;fillColor=#a20025;strokeColor=#6F0000;fontColor=#ffffff;" vertex="1" parent="22">
                    <mxGeometry x="350" y="60" width="20" height="20" as="geometry"/>
                </mxCell>
                <mxCell id="26" value="" style="shape=ext;double=1;whiteSpace=wrap;html=1;aspect=fixed;fillColor=#a20025;strokeColor=#6F0000;fontColor=#ffffff;" vertex="1" parent="22">
                    <mxGeometry x="350" y="120" width="20" height="20" as="geometry"/>
                </mxCell>
                <mxCell id="27" value="" style="shape=ext;double=1;whiteSpace=wrap;html=1;aspect=fixed;fillColor=#a20025;strokeColor=#6F0000;fontColor=#ffffff;" vertex="1" parent="22">
                    <mxGeometry x="350" y="180" width="20" height="20" as="geometry"/>
                </mxCell>
                <mxCell id="28" value="" style="shape=ext;double=1;whiteSpace=wrap;html=1;aspect=fixed;fillColor=#a20025;strokeColor=#6F0000;fontColor=#ffffff;" vertex="1" parent="22">
                    <mxGeometry x="350" y="210" width="20" height="20" as="geometry"/>
                </mxCell>
                <mxCell id="29" value="" style="shape=ext;double=1;whiteSpace=wrap;html=1;aspect=fixed;fillColor=#a20025;strokeColor=#6F0000;fontColor=#ffffff;" vertex="1" parent="22">
                    <mxGeometry x="350" y="240" width="20" height="20" as="geometry"/>
                </mxCell>
                <mxCell id="30" value="" style="shape=ext;double=1;whiteSpace=wrap;html=1;aspect=fixed;" vertex="1" parent="22">
                    <mxGeometry x="350" y="90" width="20" height="20" as="geometry"/>
                </mxCell>
                <mxCell id="31" value="" style="shape=ext;double=1;whiteSpace=wrap;html=1;aspect=fixed;direction=south;" vertex="1" parent="22">
                    <mxGeometry x="350" y="153" width="20" height="20" as="geometry"/>
                </mxCell>
                <mxCell id="32" value="" style="shape=ext;double=1;whiteSpace=wrap;html=1;aspect=fixed;fillColor=#a20025;strokeColor=#6F0000;fontColor=#ffffff;" vertex="1" parent="22">
                    <mxGeometry x="350" y="300" width="20" height="20" as="geometry"/>
                </mxCell>
                <mxCell id="33" value="" style="shape=ext;double=1;whiteSpace=wrap;html=1;aspect=fixed;" vertex="1" parent="22">
                    <mxGeometry x="350" y="270" width="20" height="20" as="geometry"/>
                </mxCell>
            </root>
        </mxGraphModel>
    </diagram>
</mxfile>